ffmpeg started on 2026-01-06 at 11:53:40
Report written to "D:\Convert\FFMetrics\reports\psnr_report-6.txt"
Log level: 32
Command line:
ffmpeg -hide_banner -nostdin -r 24000/1001 -i "F:\\Convert\\files\\Nanatsu_no_Maken_ga_Shihai_suru_[02]_[AniLibria_TV]_[WEBRip_1080p]_HEVC(54).mkv" -r 24000/1001 -i "F:\\Convert\\files\\Nanatsu_no_Maken_ga_Shihai_suru_[02]_[AniLibria_TV]_[WEBRip_1080p].mkv" -lavfi "[0:v]settb=AVTB,setpts=PTS-STARTPTS,format=pix_fmts=yuv420p10le,fps=24000/1001,scale=1920:1080:flags=bicubic[main];[1:v]settb=AVTB,setpts=PTS-STARTPTS,format=pix_fmts=yuv420p,fps=24000/1001,scale=1920:1080:flags=bicubic[ref];[main][ref]psnr=eof_action=endall:stats_file='D\\:/Convert/FFMetrics/logs/psnr_logfile-6.txt'" -f null -
Input #0, matroska,webm, from 'F:\Convert\files\Nanatsu_no_Maken_ga_Shihai_suru_[02]_[AniLibria_TV]_[WEBRip_1080p]_HEVC(54).mkv':
  Metadata:
    ENCODER         : Lavf61.7.100
  Duration: 00:23:40.14, start: -0.021000, bitrate: 1195 kb/s
  Stream #0:0: Video: hevc (Main 10), yuv420p10le(tv, bt709, progressive), 1920x1080 [SAR 1:1 DAR 16:9], 23.98 fps, 23.98 tbr, 1k tbn (default)
      Metadata:
        title           : Original
        ENCODER         : Lavc61.19.100 libx265
        BPS             : 955926
        DURATION        : 00:23:40.001708333
        NUMBER_OF_FRAMES: 34046
        NUMBER_OF_BYTES : 169677117
        _STATISTICS_WRITING_APP: mkvpropedit v94.0 ('Initiate') 64-bit
        _STATISTICS_WRITING_DATE_UTC: 2026-01-05 15:58:03
        _STATISTICS_TAGS: BPS DURATION NUMBER_OF_FRAMES NUMBER_OF_BYTES
  Stream #0:1(rus): Audio: aac (LC), 48000 Hz, stereo, fltp (default)
      Metadata:
        title           : AniLibria.TV
        ENCODER         : Lavc61.19.100 aac
        BPS             : 194057
        DURATION        : 00:23:40.117000000
        NUMBER_OF_FRAMES: 66569
        NUMBER_OF_BYTES : 34448087
        _STATISTICS_WRITING_APP: mkvpropedit v94.0 ('Initiate') 64-bit
        _STATISTICS_WRITING_DATE_UTC: 2026-01-05 15:58:03
        _STATISTICS_TAGS: BPS DURATION NUMBER_OF_FRAMES NUMBER_OF_BYTES
  Stream #0:2(rus): Subtitle: ass (ssa) (default)
      Metadata:
        title           : Надписи
        BPS             : 340
        DURATION        : 00:22:14.570000000
        NUMBER_OF_FRAMES: 381
        NUMBER_OF_BYTES : 56799
        _STATISTICS_WRITING_APP: mkvpropedit v94.0 ('Initiate') 64-bit
        _STATISTICS_WRITING_DATE_UTC: 2026-01-05 15:58:03
        _STATISTICS_TAGS: BPS DURATION NUMBER_OF_FRAMES NUMBER_OF_BYTES
  Stream #0:3(rus): Subtitle: ass (ssa)
      Metadata:
        title           : Субтитры
        BPS             : 489
        DURATION        : 00:23:37.340000000
        NUMBER_OF_FRAMES: 749
        NUMBER_OF_BYTES : 86800
        _STATISTICS_WRITING_APP: mkvpropedit v94.0 ('Initiate') 64-bit
        _STATISTICS_WRITING_DATE_UTC: 2026-01-05 15:58:03
        _STATISTICS_TAGS: BPS DURATION NUMBER_OF_FRAMES NUMBER_OF_BYTES
  Stream #0:4: Attachment: ttf
      Metadata:
        filename        : AGPMOD.TTF
        mimetype        : application/x-truetype-font
  Stream #0:5: Attachment: ttf
      Metadata:
        filename        : DFPSNGyosho-W5-CP-Spec.ttf
        mimetype        : application/x-truetype-font
  Stream #0:6: Attachment: ttf
      Metadata:
        filename        : Modernist One.ttf
        mimetype        : application/x-truetype-font
  Stream #0:7: Attachment: ttf
      Metadata:
        filename        : 1125177.TTF
        mimetype        : application/x-truetype-font
  Stream #0:8: Attachment: ttf
      Metadata:
        filename        : Roboto-Medium.ttf
        mimetype        : application/x-truetype-font
  Stream #0:9: Attachment: ttf
      Metadata:
        filename        : Roboto-MediumItalic.ttf
        mimetype        : application/x-truetype-font
  Stream #0:10: Attachment: ttf
      Metadata:
        filename        : arial.ttf
        mimetype        : application/x-truetype-font
  Stream #0:11: Attachment: ttf
      Metadata:
        filename        : arialbd.ttf
        mimetype        : application/x-truetype-font
  Stream #0:12: Attachment: ttf
      Metadata:
        filename        : comic.ttf
        mimetype        : application/x-truetype-font
  Stream #0:13: Attachment: ttf
      Metadata:
        filename        : comicbd.ttf
        mimetype        : application/x-truetype-font
  Stream #0:14: Attachment: ttf
      Metadata:
        filename        : times.ttf
        mimetype        : application/x-truetype-font
  Stream #0:15: Attachment: ttf
      Metadata:
        filename        : timesbd.ttf
        mimetype        : application/x-truetype-font
  Stream #0:16: Attachment: ttf
      Metadata:
        filename        : trebuc.ttf
        mimetype        : application/x-truetype-font
  Stream #0:17: Attachment: ttf
      Metadata:
        filename        : trebucbd.ttf
        mimetype        : application/x-truetype-font
  Stream #0:18: Attachment: ttf
      Metadata:
        filename        : verdana.ttf
        mimetype        : application/x-truetype-font
  Stream #0:19: Attachment: ttf
      Metadata:
        filename        : verdanab.ttf
        mimetype        : application/x-truetype-font
  Stream #0:20: Attachment: ttf
      Metadata:
        filename        : CONSOLA.TTF
        mimetype        : application/x-truetype-font
  Stream #0:21: Attachment: ttf
      Metadata:
        filename        : CONSOLAB.TTF
        mimetype        : application/x-truetype-font
Input #1, matroska,webm, from 'F:\Convert\files\Nanatsu_no_Maken_ga_Shihai_suru_[02]_[AniLibria_TV]_[WEBRip_1080p].mkv':
  Metadata:
    encoder         : libebml v1.4.4 + libmatroska v1.7.1
    creation_time   : 2023-07-15T11:47:58.000000Z
  Duration: 00:23:40.12, start: 0.000000, bitrate: 8335 kb/s
  Stream #1:0: Video: h264 (High), yuv420p(tv, bt709, progressive), 1920x1080 [SAR 1:1 DAR 16:9], 23.98 fps, 23.98 tbr, 1k tbn (default)
      Metadata:
        title           : Original
        BPS             : 7971709
        DURATION        : 00:23:40.045000000
        NUMBER_OF_FRAMES: 34047
        NUMBER_OF_BYTES : 1415023222
        _STATISTICS_WRITING_APP: mkvmerge v77.0 ('Elemental') 64-bit
        _STATISTICS_WRITING_DATE_UTC: 2023-07-15 11:47:58
        _STATISTICS_TAGS: BPS DURATION NUMBER_OF_FRAMES NUMBER_OF_BYTES
  Stream #1:1(rus): Audio: aac (LC), 48000 Hz, stereo, fltp (default)
      Metadata:
        title           : AniLibria.TV
        BPS             : 191999
        DURATION        : 00:23:40.117000000
        NUMBER_OF_FRAMES: 66568
        NUMBER_OF_BYTES : 34082731
        _STATISTICS_WRITING_APP: mkvmerge v77.0 ('Elemental') 64-bit
        _STATISTICS_WRITING_DATE_UTC: 2023-07-15 11:47:58
        _STATISTICS_TAGS: BPS DURATION NUMBER_OF_FRAMES NUMBER_OF_BYTES
  Stream #1:2(jpn): Audio: aac (LC), 44100 Hz, stereo, fltp
      Metadata:
        title           : Original
        BPS             : 128000
        DURATION        : 00:23:40.109000000
        NUMBER_OF_FRAMES: 61159
        NUMBER_OF_BYTES : 22721748
        _STATISTICS_WRITING_APP: mkvmerge v77.0 ('Elemental') 64-bit
        _STATISTICS_WRITING_DATE_UTC: 2023-07-15 11:47:58
        _STATISTICS_TAGS: BPS DURATION NUMBER_OF_FRAMES NUMBER_OF_BYTES
  Stream #1:3(rus): Subtitle: ass (ssa) (default)
      Metadata:
        title           : Надписи
        BPS             : 340
        DURATION        : 00:22:14.570000000
        NUMBER_OF_FRAMES: 381
        NUMBER_OF_BYTES : 56799
        _STATISTICS_WRITING_APP: mkvmerge v77.0 ('Elemental') 64-bit
        _STATISTICS_WRITING_DATE_UTC: 2023-07-15 11:47:58
        _STATISTICS_TAGS: BPS DURATION NUMBER_OF_FRAMES NUMBER_OF_BYTES
  Stream #1:4(rus): Subtitle: ass (ssa)
      Metadata:
        title           : Субтитры
        BPS             : 489
        DURATION        : 00:23:37.340000000
        NUMBER_OF_FRAMES: 749
        NUMBER_OF_BYTES : 86800
        _STATISTICS_WRITING_APP: mkvmerge v77.0 ('Elemental') 64-bit
        _STATISTICS_WRITING_DATE_UTC: 2023-07-15 11:47:58
        _STATISTICS_TAGS: BPS DURATION NUMBER_OF_FRAMES NUMBER_OF_BYTES
  Stream #1:5: Attachment: ttf
      Metadata:
        filename        : AGPMOD.TTF
        mimetype        : application/x-truetype-font
  Stream #1:6: Attachment: ttf
      Metadata:
        filename        : DFPSNGyosho-W5-CP-Spec.ttf
        mimetype        : application/x-truetype-font
  Stream #1:7: Attachment: ttf
      Metadata:
        filename        : Modernist One.ttf
        mimetype        : application/x-truetype-font
  Stream #1:8: Attachment: ttf
      Metadata:
        filename        : 1125177.TTF
        mimetype        : application/x-truetype-font
  Stream #1:9: Attachment: ttf
      Metadata:
        filename        : Roboto-Medium.ttf
        mimetype        : application/x-truetype-font
  Stream #1:10: Attachment: ttf
      Metadata:
        filename        : Roboto-MediumItalic.ttf
        mimetype        : application/x-truetype-font
  Stream #1:11: Attachment: ttf
      Metadata:
        filename        : arial.ttf
        mimetype        : application/x-truetype-font
  Stream #1:12: Attachment: ttf
      Metadata:
        filename        : arialbd.ttf
        mimetype        : application/x-truetype-font
  Stream #1:13: Attachment: ttf
      Metadata:
        filename        : comic.ttf
        mimetype        : application/x-truetype-font
  Stream #1:14: Attachment: ttf
      Metadata:
        filename        : comicbd.ttf
        mimetype        : application/x-truetype-font
  Stream #1:15: Attachment: ttf
      Metadata:
        filename        : times.ttf
        mimetype        : application/x-truetype-font
  Stream #1:16: Attachment: ttf
      Metadata:
        filename        : timesbd.ttf
        mimetype        : application/x-truetype-font
  Stream #1:17: Attachment: ttf
      Metadata:
        filename        : trebuc.ttf
        mimetype        : application/x-truetype-font
  Stream #1:18: Attachment: ttf
      Metadata:
        filename        : trebucbd.ttf
        mimetype        : application/x-truetype-font
  Stream #1:19: Attachment: ttf
      Metadata:
        filename        : verdana.ttf
        mimetype        : application/x-truetype-font
  Stream #1:20: Attachment: ttf
      Metadata:
        filename        : verdanab.ttf
        mimetype        : application/x-truetype-font
  Stream #1:21: Attachment: ttf
      Metadata:
        filename        : CONSOLA.TTF
        mimetype        : application/x-truetype-font
  Stream #1:22: Attachment: ttf
      Metadata:
        filename        : CONSOLAB.TTF
        mimetype        : application/x-truetype-font
Stream mapping:
  Stream #0:0 (hevc) -> settb:default
  Stream #1:0 (h264) -> settb:default
  psnr:default -> Stream #0:0 (wrapped_avframe)
  Stream #0:1 -> #0:1 (aac (native) -> pcm_s16le (native))
Output #0, null, to 'pipe:':
  Metadata:
    encoder         : Lavf61.7.100
  Stream #0:0: Video: wrapped_avframe, yuv420p10le(tv, bt709, progressive), 1920x1080 [SAR 1:1 DAR 16:9], q=2-31, 200 kb/s, 23.98 fps, 23.98 tbn
      Metadata:
        encoder         : Lavc61.19.100 wrapped_avframe
  Stream #0:1(rus): Audio: pcm_s16le, 48000 Hz, stereo, s16, 1536 kb/s (default)
      Metadata:
        title           : AniLibria.TV
        _STATISTICS_TAGS: BPS DURATION NUMBER_OF_FRAMES NUMBER_OF_BYTES
        BPS             : 194057
        DURATION        : 00:23:40.117000000
        NUMBER_OF_FRAMES: 66569
        NUMBER_OF_BYTES : 34448087
        _STATISTICS_WRITING_APP: mkvpropedit v94.0 ('Initiate') 64-bit
        _STATISTICS_WRITING_DATE_UTC: 2026-01-05 15:58:03
        encoder         : Lavc61.19.100 pcm_s16le
frame=  185 fps=0.0 q=-0.0 size=N/A time=00:00:07.67 bitrate=N/A speed=14.8x    frame=  446 fps=434 q=-0.0 size=N/A time=00:00:18.60 bitrate=N/A speed=18.1x    frame=  723 fps=470 q=-0.0 size=N/A time=00:00:30.15 bitrate=N/A speed=19.6x    frame= 1008 fps=492 q=-0.0 size=N/A time=00:00:42.04 bitrate=N/A speed=20.5x    frame= 1274 fps=495 q=-0.0 size=N/A time=00:00:53.13 bitrate=N/A speed=20.6x    frame= 1535 fps=497 q=-0.0 size=N/A time=00:01:04.02 bitrate=N/A speed=20.7x    frame= 1823 fps=507 q=-0.0 size=N/A time=00:01:16.03 bitrate=N/A speed=21.1x    frame= 2084 fps=505 q=-0.0 size=N/A time=00:01:26.92 bitrate=N/A speed=21.1x    frame= 2278 fps=491 q=-0.0 size=N/A time=00:01:35.01 bitrate=N/A speed=20.5x    frame= 2491 fps=484 q=-0.0 size=N/A time=00:01:43.89 bitrate=N/A speed=20.2x    frame= 2705 fps=478 q=-0.0 size=N/A time=00:01:52.82 bitrate=N/A speed=19.9x    frame= 2911 fps=471 q=-0.0 size=N/A time=00:02:01.41 bitrate=N/A speed=19.6x    frame= 3088 fps=461 q=-0.0 size=N/A time=00:02:08.79 bitrate=N/A speed=19.2x    frame= 3279 fps=455 q=-0.0 size=N/A time=00:02:16.76 bitrate=N/A speed=  19x    frame= 3481 fps=450 q=-0.0 size=N/A time=00:02:25.18 bitrate=N/A speed=18.8x    frame= 3678 fps=446 q=-0.0 size=N/A time=00:02:33.40 bitrate=N/A speed=18.6x    frame= 3909 fps=446 q=-0.0 size=N/A time=00:02:43.03 bitrate=N/A speed=18.6x    frame= 4106 fps=443 q=-0.0 size=N/A time=00:02:51.25 bitrate=N/A speed=18.5x    frame= 4348 fps=444 q=-0.0 size=N/A time=00:03:01.34 bitrate=N/A speed=18.5x    frame= 4625 fps=449 q=-0.0 size=N/A time=00:03:12.90 bitrate=N/A speed=18.7x    frame= 4864 fps=450 q=-0.0 size=N/A time=00:03:22.86 bitrate=N/A speed=18.8x    frame= 5070 fps=447 q=-0.0 size=N/A time=00:03:31.46 bitrate=N/A speed=18.6x    frame= 5212 fps=440 q=-0.0 size=N/A time=00:03:37.38 bitrate=N/A speed=18.3x    frame= 5460 fps=442 q=-0.0 size=N/A time=00:03:47.72 bitrate=N/A speed=18.4x    frame= 5721 fps=444 q=-0.0 size=N/A time=00:03:58.61 bitrate=N/A speed=18.5x    frame= 5995 fps=447 q=-0.0 size=N/A time=00:04:10.04 bitrate=N/A speed=18.7x    frame= 6265 fps=450 q=-0.0 size=N/A time=00:04:21.30 bitrate=N/A speed=18.8x    frame= 6541 fps=453 q=-0.0 size=N/A time=00:04:32.81 bitrate=N/A speed=18.9x    frame= 6808 fps=455 q=-0.0 size=N/A time=00:04:43.95 bitrate=N/A speed=  19x    frame= 7086 fps=458 q=-0.0 size=N/A time=00:04:55.54 bitrate=N/A speed=19.1x    frame= 7343 fps=460 q=-0.0 size=N/A time=00:05:06.26 bitrate=N/A speed=19.2x    frame= 7606 fps=461 q=-0.0 size=N/A time=00:05:17.23 bitrate=N/A speed=19.2x    frame= 7899 fps=464 q=-0.0 size=N/A time=00:05:29.45 bitrate=N/A speed=19.4x    frame= 8151 fps=465 q=-0.0 size=N/A time=00:05:39.96 bitrate=N/A speed=19.4x    frame= 8433 fps=467 q=-0.0 size=N/A time=00:05:51.72 bitrate=N/A speed=19.5x    frame= 8721 fps=470 q=-0.0 size=N/A time=00:06:03.73 bitrate=N/A speed=19.6x    frame= 8939 fps=469 q=-0.0 size=N/A time=00:06:12.83 bitrate=N/A speed=19.6x    frame= 9209 fps=470 q=-0.0 size=N/A time=00:06:24.09 bitrate=N/A speed=19.6x    frame= 9438 fps=469 q=-0.0 size=N/A time=00:06:33.64 bitrate=N/A speed=19.6x    frame= 9711 fps=471 q=-0.0 size=N/A time=00:06:45.02 bitrate=N/A speed=19.6x    frame= 9956 fps=471 q=-0.0 size=N/A time=00:06:55.24 bitrate=N/A speed=19.6x    frame=10175 fps=470 q=-0.0 size=N/A time=00:07:04.38 bitrate=N/A speed=19.6x    frame=10376 fps=468 q=-0.0 size=N/A time=00:07:12.76 bitrate=N/A speed=19.5x    frame=10572 fps=466 q=-0.0 size=N/A time=00:07:20.94 bitrate=N/A speed=19.4x    frame=10766 fps=464 q=-0.0 size=N/A time=00:07:29.03 bitrate=N/A speed=19.4x    frame=10951 fps=462 q=-0.0 size=N/A time=00:07:36.74 bitrate=N/A speed=19.3x    frame=11137 fps=460 q=-0.0 size=N/A time=00:07:44.50 bitrate=N/A speed=19.2x    frame=11385 fps=460 q=-0.0 size=N/A time=00:07:54.84 bitrate=N/A speed=19.2x    frame=11531 fps=457 q=-0.0 size=N/A time=00:08:00.93 bitrate=N/A speed=  19x    frame=11775 fps=457 q=-0.0 size=N/A time=00:08:11.11 bitrate=N/A speed=19.1x    frame=12047 fps=458 q=-0.0 size=N/A time=00:08:22.46 bitrate=N/A speed=19.1x    frame=12293 fps=459 q=-0.0 size=N/A time=00:08:32.72 bitrate=N/A speed=19.1x    frame=12519 fps=458 q=-0.0 size=N/A time=00:08:42.14 bitrate=N/A speed=19.1x    frame=12715 fps=457 q=-0.0 size=N/A time=00:08:50.32 bitrate=N/A speed=19.1x    frame=12956 fps=457 q=-0.0 size=N/A time=00:09:00.37 bitrate=N/A speed=19.1x    frame=13202 fps=457 q=-0.0 size=N/A time=00:09:10.63 bitrate=N/A speed=19.1x    frame=13462 fps=458 q=-0.0 size=N/A time=00:09:21.47 bitrate=N/A speed=19.1x    frame=13727 fps=459 q=-0.0 size=N/A time=00:09:32.53 bitrate=N/A speed=19.1x    frame=13986 fps=460 q=-0.0 size=N/A time=00:09:43.33 bitrate=N/A speed=19.2x    frame=14252 fps=461 q=-0.0 size=N/A time=00:09:54.42 bitrate=N/A speed=19.2x    frame=14519 fps=462 q=-0.0 size=N/A time=00:10:05.56 bitrate=N/A speed=19.3x    frame=14774 fps=462 q=-0.0 size=N/A time=00:10:16.19 bitrate=N/A speed=19.3x    frame=15047 fps=463 q=-0.0 size=N/A time=00:10:27.58 bitrate=N/A speed=19.3x    frame=15325 fps=464 q=-0.0 size=N/A time=00:10:39.18 bitrate=N/A speed=19.4x    frame=15581 fps=465 q=-0.0 size=N/A time=00:10:49.85 bitrate=N/A speed=19.4x    frame=15798 fps=464 q=-0.0 size=N/A time=00:10:58.90 bitrate=N/A speed=19.4x    frame=16065 fps=465 q=-0.0 size=N/A time=00:11:10.04 bitrate=N/A speed=19.4x    frame=16296 fps=465 q=-0.0 size=N/A time=00:11:19.67 bitrate=N/A speed=19.4x    frame=16504 fps=464 q=-0.0 size=N/A time=00:11:28.35 bitrate=N/A speed=19.3x    frame=16721 fps=463 q=-0.0 size=N/A time=00:11:37.40 bitrate=N/A speed=19.3x    frame=16927 fps=462 q=-0.0 size=N/A time=00:11:45.99 bitrate=N/A speed=19.3x    frame=17121 fps=461 q=-0.0 size=N/A time=00:11:54.08 bitrate=N/A speed=19.2x    frame=17352 fps=461 q=-0.0 size=N/A time=00:12:03.72 bitrate=N/A speed=19.2x    frame=17579 fps=461 q=-0.0 size=N/A time=00:12:13.19 bitrate=N/A speed=19.2x    frame=17833 fps=461 q=-0.0 size=N/A time=00:12:23.78 bitrate=N/A speed=19.2x    frame=18041 fps=460 q=-0.0 size=N/A time=00:12:32.46 bitrate=N/A speed=19.2x    frame=18279 fps=460 q=-0.0 size=N/A time=00:12:42.38 bitrate=N/A speed=19.2x    frame=18527 fps=460 q=-0.0 size=N/A time=00:12:52.73 bitrate=N/A speed=19.2x    frame=18747 fps=460 q=-0.0 size=N/A time=00:13:01.90 bitrate=N/A speed=19.2x    frame=18975 fps=460 q=-0.0 size=N/A time=00:13:11.41 bitrate=N/A speed=19.2x    frame=19227 fps=460 q=-0.0 size=N/A time=00:13:21.92 bitrate=N/A speed=19.2x    frame=19490 fps=461 q=-0.0 size=N/A time=00:13:32.89 bitrate=N/A speed=19.2x    frame=19752 fps=461 q=-0.0 size=N/A time=00:13:43.82 bitrate=N/A speed=19.2x    frame=20026 fps=462 q=-0.0 size=N/A time=00:13:55.25 bitrate=N/A speed=19.3x    frame=20300 fps=463 q=-0.0 size=N/A time=00:14:06.67 bitrate=N/A speed=19.3x    frame=20568 fps=464 q=-0.0 size=N/A time=00:14:17.85 bitrate=N/A speed=19.3x    frame=20828 fps=464 q=-0.0 size=N/A time=00:14:28.70 bitrate=N/A speed=19.4x    frame=21093 fps=465 q=-0.0 size=N/A time=00:14:39.75 bitrate=N/A speed=19.4x    frame=21364 fps=465 q=-0.0 size=N/A time=00:14:51.05 bitrate=N/A speed=19.4x    frame=21611 fps=465 q=-0.0 size=N/A time=00:15:01.35 bitrate=N/A speed=19.4x    frame=21851 fps=465 q=-0.0 size=N/A time=00:15:11.36 bitrate=N/A speed=19.4x    frame=22072 fps=465 q=-0.0 size=N/A time=00:15:20.58 bitrate=N/A speed=19.4x    frame=22347 fps=466 q=-0.0 size=N/A time=00:15:32.05 bitrate=N/A speed=19.4x    frame=22634 fps=467 q=-0.0 size=N/A time=00:15:44.02 bitrate=N/A speed=19.5x    frame=22930 fps=468 q=-0.0 size=N/A time=00:15:56.37 bitrate=N/A speed=19.5x    frame=23207 fps=468 q=-0.0 size=N/A time=00:16:07.92 bitrate=N/A speed=19.5x    frame=23482 fps=469 q=-0.0 size=N/A time=00:16:19.39 bitrate=N/A speed=19.6x    frame=23771 fps=470 q=-0.0 size=N/A time=00:16:31.44 bitrate=N/A speed=19.6x    frame=24094 fps=471 q=-0.0 size=N/A time=00:16:44.92 bitrate=N/A speed=19.7x    frame=24387 fps=472 q=-0.0 size=N/A time=00:16:57.14 bitrate=N/A speed=19.7x    frame=24657 fps=473 q=-0.0 size=N/A time=00:17:08.40 bitrate=N/A speed=19.7x    frame=24889 fps=473 q=-0.0 size=N/A time=00:17:18.07 bitrate=N/A speed=19.7x    frame=25176 fps=474 q=-0.0 size=N/A time=00:17:30.04 bitrate=N/A speed=19.8x    frame=25460 fps=474 q=-0.0 size=N/A time=00:17:41.89 bitrate=N/A speed=19.8x    frame=25713 fps=474 q=-0.0 size=N/A time=00:17:52.44 bitrate=N/A speed=19.8x    frame=25956 fps=474 q=-0.0 size=N/A time=00:18:02.58 bitrate=N/A speed=19.8x    frame=26238 fps=475 q=-0.0 size=N/A time=00:18:14.34 bitrate=N/A speed=19.8x    frame=26488 fps=475 q=-0.0 size=N/A time=00:18:24.77 bitrate=N/A speed=19.8x    frame=26755 fps=475 q=-0.0 size=N/A time=00:18:35.90 bitrate=N/A speed=19.8x    frame=26986 fps=475 q=-0.0 size=N/A time=00:18:45.54 bitrate=N/A speed=19.8x    frame=27263 fps=476 q=-0.0 size=N/A time=00:18:57.09 bitrate=N/A speed=19.8x    frame=27562 fps=477 q=-0.0 size=N/A time=00:19:09.56 bitrate=N/A speed=19.9x    frame=27838 fps=477 q=-0.0 size=N/A time=00:19:21.07 bitrate=N/A speed=19.9x    frame=28098 fps=477 q=-0.0 size=N/A time=00:19:31.92 bitrate=N/A speed=19.9x    frame=28396 fps=478 q=-0.0 size=N/A time=00:19:44.34 bitrate=N/A speed=19.9x    frame=28676 fps=479 q=-0.0 size=N/A time=00:19:56.02 bitrate=N/A speed=  20x    frame=28953 fps=479 q=-0.0 size=N/A time=00:20:07.58 bitrate=N/A speed=  20x    frame=29217 fps=480 q=-0.0 size=N/A time=00:20:18.59 bitrate=N/A speed=  20x    frame=29502 fps=480 q=-0.0 size=N/A time=00:20:30.47 bitrate=N/A speed=  20x    frame=29808 fps=481 q=-0.0 size=N/A time=00:20:43.24 bitrate=N/A speed=20.1x    frame=30066 fps=481 q=-0.0 size=N/A time=00:20:54.00 bitrate=N/A speed=20.1x    frame=30329 fps=481 q=-0.0 size=N/A time=00:21:04.97 bitrate=N/A speed=20.1x    frame=30600 fps=482 q=-0.0 size=N/A time=00:21:16.27 bitrate=N/A speed=20.1x    frame=30849 fps=482 q=-0.0 size=N/A time=00:21:26.66 bitrate=N/A speed=20.1x    frame=31143 fps=482 q=-0.0 size=N/A time=00:21:38.92 bitrate=N/A speed=20.1x    frame=31414 fps=483 q=-0.0 size=N/A time=00:21:50.22 bitrate=N/A speed=20.1x    frame=31680 fps=483 q=-0.0 size=N/A time=00:22:01.32 bitrate=N/A speed=20.1x    frame=31944 fps=483 q=-0.0 size=N/A time=00:22:12.33 bitrate=N/A speed=20.2x    frame=32230 fps=484 q=-0.0 size=N/A time=00:22:24.25 bitrate=N/A speed=20.2x    frame=32506 fps=484 q=-0.0 size=N/A time=00:22:35.77 bitrate=N/A speed=20.2x    frame=32781 fps=485 q=-0.0 size=N/A time=00:22:47.24 bitrate=N/A speed=20.2x    frame=33065 fps=485 q=-0.0 size=N/A time=00:22:59.08 bitrate=N/A speed=20.2x    frame=33331 fps=485 q=-0.0 size=N/A time=00:23:10.18 bitrate=N/A speed=20.2x    frame=33592 fps=485 q=-0.0 size=N/A time=00:23:21.06 bitrate=N/A speed=20.2x    frame=33866 fps=486 q=-0.0 size=N/A time=00:23:32.49 bitrate=N/A speed=20.3x    [Parsed_psnr_10 @ 000001e7a20d65c0] PSNR y:48.933648 u:48.502053 v:48.363721 average:48.760034 min:39.961998 max:76.830322
[out#0/null @ 000001e79bf39b40] video:14629KiB audio:266276KiB subtitle:0KiB other streams:0KiB global headers:0KiB muxing overhead: unknown
frame=34046 fps=486 q=-0.0 Lsize=N/A time=00:23:40.00 bitrate=N/A speed=20.3x    
